<?xml version="1.0" encoding="utf-8"?><svg xmlns="http://www.w3.org/2000/svg" xmlns:xlink="http://www.w3.org/1999/xlink" width="1536" height="739" preserveAspectRatio="xMidYMid" viewBox="0 0 1536 739" style="z-index:1;margin-right:-1.6px;display:block;animation-play-state:paused" ><g transform="translate(768,369.5) scale(1,-1) translate(-768,-369.5)" style="transform:matrix(1, 0, 0, -1, 0, 739);animation-play-state:paused" ><linearGradient id="lg-0.9158987068761171" x1="0" x2="1" y1="0" y2="0" style="animation-play-state:paused" ><stop stop-color="#591bd5" offset="0" style="animation-play-state:paused" ></stop>

  
<stop stop-color="#dcf2f1" offset="1" style="animation-play-state:paused" ></stop></linearGradient>
<path d="M 0 0 L 0 326.097 Q 153.6 278.074 307.2 231.508 T 614.4 129.051 T 921.6 168.177 T 1228.8 127.773 T 1536 -38.5962 L 1536 0 Z" fill="url(#lg-0.9158987068761171)" opacity="0.6799999999999999" style="opacity:0.68;animation-play-state:paused" ></path>
<path d="M 0 0 L 0 189.046 Q 153.6 210.611 307.2 171.889 T 614.4 187.516 T 921.6 50.8127 T 1228.8 -6.99023 T 1536 -62.6194 L 1536 0 Z" fill="url(#lg-0.9158987068761171)" opacity="0.6799999999999999" style="opacity:0.68;animation-play-state:paused" ></path>
<path d="M 0 0 L 0 344.834 Q 153.6 310.698 307.2 272.672 T 614.4 69.2228 T 921.6 3.57886 T 1228.8 102.087 T 1536 -51.4878 L 1536 0 Z" fill="url(#lg-0.9158987068761171)" opacity="0.6799999999999999" style="opacity:0.68;animation-play-state:paused" ></path></g></svg>